<svg width="32" height="32" viewBox="0 0 32 32" fill="none" xmlns="http://www.w3.org/2000/svg">
<path d="M16 0C12.8355 0 9.74207 0.938384 7.11088 2.69649C4.4797 4.45459 2.42894 6.95345 1.21793 9.87706C0.0069325 12.8007 -0.309921 16.0177 0.307443 19.1214C0.924806 22.2251 2.44866 25.0761 4.6863 27.3137C6.92394 29.5513 9.77487 31.0752 12.8786 31.6926C15.9823 32.3099 19.1993 31.9931 22.1229 30.7821C25.0466 29.5711 27.5454 27.5203 29.3035 24.8891C31.0616 22.2579 32 19.1645 32 16C32 11.7565 30.3143 7.68687 27.3137 4.68629C24.3131 1.68571 20.2435 0 16 0ZM16 30.4C13.152 30.4 10.3679 29.5555 7.9998 27.9732C5.63173 26.3909 3.78604 24.1419 2.69614 21.5106C1.60624 18.8794 1.32107 15.984 1.8767 13.1907C2.43233 10.3974 3.80379 7.83154 5.81767 5.81766C7.83155 3.80379 10.3974 2.43232 13.1907 1.87669C15.984 1.32106 18.8794 1.60623 21.5106 2.69613C24.1419 3.78604 26.3909 5.63172 27.9732 7.99979C29.5555 10.3679 30.4 13.1519 30.4 16C30.4 19.8191 28.8829 23.4818 26.1823 26.1823C23.4818 28.8829 19.8191 30.4 16 30.4ZM28.48 18.12V19.52H23.93V12.52H25.53V18.16L28.48 18.12ZM7.48001 19.52C8.25892 19.5193 9.01573 19.2609 9.63251 18.7852C10.2493 18.3095 10.6914 17.6432 10.89 16.89L14.89 20L18.89 16.89V19.52H23.43V18.12H20.45V12.48H18.85V15.11L15 18.1L14.14 17.43L16 16L18 14.44L16.86 13.56L13.04 16.56L12.19 15.89L16.01 12.89L14.86 12L10.86 15.11C10.6614 14.3568 10.2193 13.6905 9.60251 13.2148C8.98573 12.7391 8.22892 12.4807 7.45001 12.48H4.61001V19.48L7.48001 19.52ZM6.22001 18.12V13.88H7.47001C7.73626 13.8902 7.9978 13.9534 8.23926 14.0661C8.48073 14.1787 8.69725 14.3385 8.87611 14.536C9.05497 14.7335 9.19256 14.9647 9.28081 15.2161C9.36906 15.4675 9.40619 15.734 9.39001 16C9.40619 16.266 9.36906 16.5325 9.28081 16.7839C9.19256 17.0353 9.05497 17.2665 8.87611 17.464C8.69725 17.6615 8.48073 17.8213 8.23926 17.9339C7.9978 18.0466 7.73626 18.1098 7.47001 18.12H6.22001Z" fill="#0076CE"/>
</svg>
